<svg id="Layer_1" data-name="Layer 1" xmlns="http://www.w3.org/2000/svg" viewBox="0 0 600 88.18"><title>Battlefy - white text</title><path d="M96.9,134.09H60V45.91H95.41c17.22,0,27.25,9.66,27.25,24.77a20.42,20.42,0,0,1-10.89,18.21c5.33,2.46,12.14,8,12.14,19.81C123.9,125.17,112.63,134.09,96.9,134.09ZM94.05,61.27H77.21v20.3H94.05c7.3,0,11.39-4.09,11.39-10.15S101.36,61.27,94.05,61.27Zm1.11,35.79h-18v21.67h18c7.8,0,11.52-5,11.52-10.9S103,97.05,95.17,97.05Z" transform="translate(-60 -45.91)" fill="#fff"/><path d="M195.37,134.09l-5.21-15.62H158.84l-5.33,15.62h-18l32.08-88.18h13.5l32.19,88.18H195.37ZM174.82,71.91L163.67,104h21.91Z" transform="translate(-60 -45.91)" fill="#fff"/><path d="M254.21,61.27v72.82H237V61.27H214V45.91h63.29V61.27h-23Z" transform="translate(-60 -45.91)" fill="#fff"/><path d="M328.66,61.27v72.82H311.45V61.27h-23V45.91h63.28V61.27h-23Z" transform="translate(-60 -45.91)" fill="#fff"/><path d="M369.42,134.09V45.91h17.22v72.82h40v15.36H369.42Z" transform="translate(-60 -45.91)" fill="#fff"/><path d="M444.35,134.09V45.91h58.09V61.27H461.57V82h34.8V97.3h-34.8v21.43h40.87v15.36H444.35Z" transform="translate(-60 -45.91)" fill="#fff"/><path d="M540.23,61.27V82.94H575V98.3h-34.8v35.79H523V45.91h58.07V61.27H540.23Z" transform="translate(-60 -45.91)" fill="#eb2b44"/><path d="M633.49,97.93v36.17H616.41V97.93l-26.5-52H608.6l16.47,35.54L641.3,45.91H660Z" transform="translate(-60 -45.91)" fill="#eb2b44"/></svg>